<?xml version="1.0" encoding="iso-8859-1"?>
<!-- Uploaded to: SVG Repo, www.svgrepo.com, Generator: SVG Repo Mixer Tools -->
<svg fill="#000000" height="800px" width="800px" version="1.1" id="Layer_1" xmlns="http://www.w3.org/2000/svg" xmlns:xlink="http://www.w3.org/1999/xlink" 
	 viewBox="0 0 512.001 512.001" xml:space="preserve">
<g>
	<g>
		<path d="M207.092,80.144c-14.428,0-26.167,11.685-26.167,26.049c0,14.435,11.739,26.179,26.167,26.179
			c14.435,0,26.179-11.744,26.179-26.179C233.271,91.829,221.527,80.144,207.092,80.144z M207.092,111.974
			c-3.235,0-5.769-2.54-5.769-5.781c0-3.168,2.533-5.65,5.769-5.65c3.295,0,5.781,2.428,5.781,5.65
			C212.873,109.434,210.334,111.974,207.092,111.974z"/>
	</g>
</g>
<g>
	<g>
		<path d="M304.911,80.144c-14.435,0-26.179,11.685-26.179,26.049c0,14.435,11.744,26.179,26.179,26.179
			c14.428,0,26.167-11.744,26.167-26.179C331.078,91.829,319.339,80.144,304.911,80.144z M304.911,111.974
			c-3.242,0-5.781-2.54-5.781-5.781c0-3.221,2.486-5.65,5.781-5.65c3.289,0,5.769,2.428,5.769,5.65
			C310.679,109.434,308.146,111.974,304.911,111.974z"/>
	</g>
</g>
<g>
	<g>
		<path d="M424.972,155.45h-1.253c-7.047,0-13.667,1.854-19.414,5.088v-10.603c0-43.915-25.443-84.667-66.997-108.296l24.227-24.227
			c3.983-3.983,3.983-10.441,0-14.425c-3.984-3.983-10.44-3.983-14.425,0l-29.275,29.275c-19.476-7.759-40.25-11.702-61.78-11.702
			c-21.592,0-42.399,3.946-61.881,11.709L164.893,2.987c-3.984-3.983-10.44-3.983-14.425,0c-3.983,3.983-3.983,10.441,0,14.425
			l24.225,24.225c-41.554,23.637-66.997,64.39-66.997,108.298v10.603c-5.747-3.235-12.367-5.088-19.412-5.088h-1.253
			c-22.023,0-39.939,17.916-39.939,39.938v129.483c0,22.039,17.916,39.97,39.939,39.97h1.253c7.046,0,13.665-1.855,19.412-5.092
			v15.045c0,20.657,17.007,37.464,37.912,37.464h19.007v59.806c0,22.022,17.93,39.938,39.969,39.938h1.224
			c22.038,0,39.969-17.916,39.969-39.938v-59.806h20.468v59.806c0,22.022,17.919,39.938,39.945,39.938h1.245
			c22.028,0,39.948-17.916,39.948-39.938v-59.806h19.029c20.892,0,37.889-16.806,37.889-37.464v-15.046
			c5.747,3.237,12.368,5.092,19.414,5.092h1.253c22.023,0,39.939-17.93,39.939-39.97V195.389
			C464.911,173.367,446.995,155.45,424.972,155.45z M107.697,324.872c0.001,10.791-8.707,19.57-19.411,19.57h-1.255
			c-10.774,0-19.541-8.779-19.541-19.571V195.389c0-10.774,8.766-19.54,19.541-19.54h1.253c10.704,0,19.412,8.765,19.412,19.54
			V324.872z M383.907,374.793L383.907,374.793c-0.001,9.251-8.011,17.065-17.492,17.065h-29.228
			c-5.632,0-10.199,4.566-10.199,10.199v70.005c0,10.773-8.77,19.54-19.55,19.54h-1.245c-10.777,0-19.547-8.765-19.547-19.54
			v-70.005c0-5.633-4.567-10.199-10.199-10.199h-40.866c-5.632,0-10.199,4.566-10.199,10.199v70.005
			c0,10.773-8.779,19.54-19.57,19.54h-1.224c-10.791,0-19.57-8.765-19.57-19.54v-70.005c0-5.633-4.567-10.199-10.199-10.199h-29.206
			c-9.658,0-17.514-7.656-17.514-17.065V169.432h190.119c5.632,0,10.199-4.566,10.199-10.199c0-5.633-4.567-10.199-10.199-10.199
			H128.114c0.375-38.502,24.677-74.203,63.646-93.367l8.849-4.01c17.387-7.098,36.042-10.698,55.447-10.698
			c19.347,0,37.972,3.598,55.36,10.696l8.815,4.009c39.281,19.304,63.676,55.414,63.676,94.271V374.793z M444.512,324.871
			c0,10.792-8.766,19.571-19.541,19.571h-1.253c-10.705,0-19.414-8.779-19.414-19.571V195.389c0-10.774,8.709-19.54,19.414-19.54
			h1.253c10.774,0,19.541,8.765,19.541,19.54V324.871z"/>
	</g>
</g>
<g>
	<g>
		<path d="M357.993,149.034h-3.06c-5.632,0-10.199,4.566-10.199,10.199s4.567,10.199,10.199,10.199h3.06
			c5.632,0,10.199-4.566,10.199-10.199S363.626,149.034,357.993,149.034z"/>
	</g>
</g>
</svg>